#include <avr/pgmspace.h>
#include "MusicPlayer.h"

/*
 * Tune converted from ABC notation to Arduino code.
 * see: https://github.com/jochenderwae/MusicPlayer
 * Tune name: Tetris - Song B
 * Composer:  
 * 
 */

const PROGMEM uint16_t tetrisSongB[] = {
180, // tempo
NOTE_E5, QART, NOTE_B4, EIGT, NOTE_C4, EIGT, NOTE_D5, EIGT, NOTE_E5, SIXT, NOTE_D5, SIXT, NOTE_C4, EIGT, NOTE_B4, EIGT, 
NOTE_A4, QART, NOTE_A4, EIGT, NOTE_C4, EIGT, NOTE_E5, QART, NOTE_D5, EIGT, NOTE_C4, EIGT, 
NOTE_B4, QART_DOT, NOTE_C4, EIGT, NOTE_D5, QART, NOTE_E5, QART, 
NOTE_C4, QART, NOTE_A4, QART, NOTE_A4, HALF, 
NOTE_REST, EIGT, NOTE_D5, QART, NOTE_F5, EIGT, NOTE_A5, QART, NOTE_G5, EIGT, NOTE_F5, EIGT, 
NOTE_E5, QART_DOT, NOTE_C4, EIGT, NOTE_E5, QART, NOTE_D5, EIGT, NOTE_C4, EIGT, 
NOTE_B4, QART, NOTE_B4, EIGT, NOTE_C4, EIGT, NOTE_D5, QART, NOTE_E5, QART, 
NOTE_C4, QART, NOTE_A4, QART, NOTE_A4, QART, NOTE_REST, QART, 
NOTE_E5, QART, NOTE_B4, EIGT, NOTE_C4, EIGT, NOTE_D5, EIGT, NOTE_E5, SIXT, NOTE_D5, SIXT, NOTE_C4, EIGT, NOTE_B4, EIGT, 
NOTE_A4, QART, NOTE_A4, EIGT, NOTE_C4, EIGT, NOTE_E5, QART, NOTE_D5, EIGT, NOTE_C4, EIGT, 
NOTE_B4, QART_DOT, NOTE_C4, EIGT, NOTE_D5, QART, NOTE_E5, QART, 
NOTE_C4, QART, NOTE_A4, QART, NOTE_A4, HALF, 
NOTE_REST, EIGT, NOTE_D5, QART, NOTE_F5, EIGT, NOTE_A5, QART, NOTE_G5, EIGT, NOTE_F5, EIGT, 
NOTE_E5, QART_DOT, NOTE_C4, EIGT, NOTE_E5, QART, NOTE_D5, EIGT, NOTE_C4, EIGT, 
NOTE_B4, QART, NOTE_B4, EIGT, NOTE_C4, EIGT, NOTE_D5, QART, NOTE_E5, QART, 
NOTE_C4, QART, NOTE_A4, QART, NOTE_A4, QART, NOTE_REST, QART, 
NOTE_E4, HALF, NOTE_C4, HALF, 
NOTE_D4, HALF, NOTE_B3, HALF, 
NOTE_C4, HALF, NOTE_A3, HALF, 
NOTE_G3, HALF, NOTE_B3, QART, NOTE_REST, QART, 
NOTE_E4, HALF, NOTE_C4, HALF, 
NOTE_D4, HALF, NOTE_B3, HALF, 
NOTE_C4, QART, NOTE_E4, QART, NOTE_A4, HALF, 
NOTE_G4, HALF, NOTE_REST, HALF, 
NOTE_E5, QART, NOTE_B4, EIGT, NOTE_C4, EIGT, NOTE_D5, EIGT, NOTE_E5, SIXT, NOTE_D5, SIXT, NOTE_C4, EIGT, NOTE_B4, EIGT, 
NOTE_A4, QART, NOTE_A4, EIGT, NOTE_C4, EIGT, NOTE_E5, QART, NOTE_D5, EIGT, NOTE_C4, EIGT, 
NOTE_B4, QART_DOT, NOTE_C4, EIGT, NOTE_D5, QART, NOTE_E5, QART, 
NOTE_C4, QART, NOTE_A4, QART, NOTE_A4, HALF, 
NOTE_REST, EIGT, NOTE_D5, QART, NOTE_F5, EIGT, NOTE_A5, QART, NOTE_G5, EIGT, NOTE_F5, EIGT, 
NOTE_E5, QART_DOT, NOTE_C4, EIGT, NOTE_E5, QART, NOTE_D5, EIGT, NOTE_C4, EIGT, 
NOTE_B4, QART, NOTE_B4, EIGT, NOTE_C4, EIGT, NOTE_D5, QART, NOTE_E5, QART, 
NOTE_C4, QART, NOTE_A4, QART, NOTE_A4, QART, NOTE_REST, QART, 
NOTE_E5, QART, NOTE_B4, EIGT, NOTE_C4, EIGT, NOTE_D5, EIGT, NOTE_E5, SIXT, NOTE_D5, SIXT, NOTE_C4, EIGT, NOTE_B4, EIGT, 
NOTE_A4, QART, NOTE_A4, EIGT, NOTE_C4, EIGT, NOTE_E5, QART, NOTE_D5, EIGT, NOTE_C4, EIGT, 
NOTE_B4, QART_DOT, NOTE_C4, EIGT, NOTE_D5, QART, NOTE_E5, QART, 
NOTE_C4, QART, NOTE_A4, QART, NOTE_A4, HALF, 
NOTE_REST, EIGT, NOTE_D5, QART, NOTE_F5, EIGT, NOTE_A5, QART, NOTE_G5, EIGT, NOTE_F5, EIGT, 
NOTE_E5, QART_DOT, NOTE_C4, EIGT, NOTE_E5, QART, NOTE_D5, EIGT, NOTE_C4, EIGT, 
NOTE_B4, QART, NOTE_B4, EIGT, NOTE_C4, EIGT, NOTE_D5, QART, NOTE_E5, QART, 
NOTE_C4, QART, NOTE_A4, QART, NOTE_A4, QART, 
NOTE_END
};

MusicPlayer<ArduinoToneNotePolicy<9>> musicPlayer = MusicPlayer<ArduinoToneNotePolicy<9>>();
void setup()
{
	musicPlayer.play(tetrisSongB);
}

void loop()
{
	musicPlayer.tick();
}
